<svg xmlns="http://www.w3.org/2000/svg" width="20" height="20" viewBox="0 0 20 20" fill="none">
    <g clip-path="url(#clip0_70_59)">
      <path d="M8.33332 10.8333C8.69119 11.3118 9.14778 11.7076 9.67211 11.9941C10.1964 12.2806 10.7762 12.4509 11.3722 12.4936C11.9681 12.5363 12.5663 12.4503 13.1261 12.2415C13.6859 12.0327 14.1942 11.7059 14.6167 11.2833L17.1167 8.78333C17.8756 7.99749 18.2956 6.94498 18.2861 5.85249C18.2766 4.76 17.8384 3.71495 17.0659 2.94242C16.2934 2.16989 15.2483 1.73168 14.1558 1.72219C13.0633 1.71269 12.0108 2.13267 11.225 2.89166L9.79165 4.31666M11.6666 9.16666C11.3088 8.68822 10.8522 8.29234 10.3279 8.00588C9.80353 7.71942 9.22373 7.54907 8.62777 7.50638C8.03182 7.4637 7.43366 7.54969 6.87386 7.75851C6.31406 7.96733 5.80572 8.2941 5.38332 8.71666L2.88332 11.2167C2.12432 12.0025 1.70435 13.055 1.71384 14.1475C1.72334 15.24 2.16154 16.285 2.93407 17.0576C3.70661 17.8301 4.75166 18.2683 5.84414 18.2778C6.93663 18.2873 7.98914 17.8673 8.77498 17.1083L10.2 15.6833" stroke="#667085" stroke-width="1.66667" stroke-linecap="round" stroke-linejoin="round"/>
    </g>
    <defs>
      <clipPath id="clip0_70_59">
        <rect width="20" height="20" fill="white"/>
      </clipPath>
    </defs>
  </svg>